<svg xmlns="http://www.w3.org/2000/svg" xmlns:xlink="http://www.w3.org/1999/xlink" width="500" zoomAndPan="magnify" viewBox="0 0 375 374.999991" height="500" preserveAspectRatio="xMidYMid meet" version="1.0"><defs><g/><clipPath id="5f36602d06"><path d="M 13.449219 46.390625 L 358 46.390625 L 358 325.390625 L 13.449219 325.390625 Z M 13.449219 46.390625 " clip-rule="nonzero"/></clipPath><clipPath id="86af999980"><path d="M 296 59 L 361.449219 59 L 361.449219 130 L 296 130 Z M 296 59 " clip-rule="nonzero"/></clipPath></defs><g clip-path="url(#5f36602d06)"><path fill="#0c2c56" d="M 96.867188 325.390625 C 62.0625 308.601562 21.257812 263.007812 15.257812 222.226562 C 6.855469 164.648438 30.859375 113.066406 77.664062 78.28125 C 142.472656 29.097656 285.292969 36.296875 334.503906 103.472656 C 387.3125 174.246094 342.902344 276.210938 255.292969 285.808594 C 197.683594 291.804688 164.882812 301.101562 76.453125 265.523438 C 76.453125 265.523438 79.667969 304.101562 96.871094 325.394531 " fill-opacity="1" fill-rule="nonzero"/></g><path fill="#0c2c56" d="M 87.621094 278.039062 C 87.621094 278.039062 87.90625 278.203125 88.464844 278.488281 C 89.019531 278.789062 89.855469 279.171875 90.886719 279.699219 C 91.945312 280.1875 93.222656 280.800781 94.710938 281.4375 C 96.179688 282.117188 97.882812 282.785156 99.707031 283.558594 C 100.632812 283.9375 101.605469 284.28125 102.609375 284.667969 C 103.609375 285.046875 104.628906 285.46875 105.710938 285.824219 C 106.785156 286.207031 107.886719 286.59375 109.011719 286.984375 C 110.148438 287.359375 111.308594 287.730469 112.492188 288.109375 C 114.832031 288.925781 117.316406 289.539062 119.808594 290.300781 C 121.046875 290.6875 122.328125 290.980469 123.605469 291.300781 C 124.886719 291.625 126.167969 291.945312 127.449219 292.265625 C 130.027344 292.847656 132.613281 293.40625 135.152344 293.957031 C 137.722656 294.378906 140.238281 294.886719 142.679688 295.332031 C 145.144531 295.667969 147.511719 296.03125 149.769531 296.375 C 150.894531 296.570312 151.996094 296.667969 153.0625 296.789062 C 154.128906 296.914062 155.160156 297.035156 156.148438 297.148438 C 158.125 297.355469 159.9375 297.640625 161.554688 297.742188 C 163.171875 297.863281 164.582031 298 165.75 298.109375 C 168.070312 298.324219 169.410156 298.480469 169.410156 298.480469 C 169.410156 298.480469 168.078125 298.574219 165.738281 298.671875 C 164.570312 298.722656 163.144531 298.789062 161.511719 298.832031 C 159.878906 298.921875 158.039062 298.84375 156.035156 298.789062 C 154.027344 298.707031 151.839844 298.730469 149.546875 298.5 C 147.246094 298.292969 144.820312 298.101562 142.320312 297.820312 C 139.835938 297.449219 137.25 297.105469 134.644531 296.667969 C 132.054688 296.148438 129.410156 295.617188 126.789062 295.050781 C 125.488281 294.707031 124.191406 294.363281 122.894531 294.019531 C 121.597656 293.675781 120.300781 293.363281 119.042969 292.949219 C 116.507812 292.175781 114.03125 291.386719 111.675781 290.492188 C 110.492188 290.046875 109.316406 289.664062 108.199219 289.191406 C 107.078125 288.71875 105.988281 288.253906 104.921875 287.800781 C 103.855469 287.371094 102.835938 286.890625 101.855469 286.421875 C 100.882812 285.941406 99.921875 285.511719 99.035156 285.046875 C 97.246094 284.121094 95.613281 283.257812 94.210938 282.410156 C 92.785156 281.617188 91.601562 280.816406 90.609375 280.1875 C 88.660156 278.882812 87.621094 278.039062 87.621094 278.039062 " fill-opacity="1" fill-rule="nonzero"/><g clip-path="url(#86af999980)"><path fill="#0c2c56" d="M 296.804688 59.519531 C 296.804688 59.519531 297.183594 59.613281 297.878906 59.8125 C 298.582031 60.015625 299.605469 60.3125 300.886719 60.773438 C 303.449219 61.664062 307.058594 63.113281 311.21875 65.234375 C 313.289062 66.3125 315.53125 67.5 317.800781 68.921875 C 318.953125 69.605469 320.089844 70.378906 321.28125 71.136719 C 322.445312 71.925781 323.628906 72.746094 324.804688 73.621094 C 325.976562 74.496094 327.171875 75.382812 328.339844 76.34375 C 328.921875 76.816406 329.527344 77.273438 330.101562 77.777344 C 330.675781 78.277344 331.253906 78.78125 331.835938 79.285156 C 333.003906 80.292969 334.097656 81.386719 335.242188 82.441406 C 336.339844 83.550781 337.464844 84.640625 338.53125 85.789062 C 339.566406 86.957031 340.648438 88.085938 341.628906 89.304688 C 342.625 90.5 343.628906 91.6875 344.542969 92.925781 C 345.011719 93.539062 345.476562 94.148438 345.941406 94.75 C 346.371094 95.378906 346.800781 96.007812 347.230469 96.628906 C 347.660156 97.25 348.082031 97.871094 348.503906 98.484375 C 348.890625 99.117188 349.285156 99.746094 349.671875 100.367188 C 350.058594 100.984375 350.445312 101.605469 350.824219 102.214844 C 351.183594 102.839844 351.527344 103.464844 351.863281 104.082031 C 352.542969 105.3125 353.210938 106.523438 353.78125 107.738281 C 354.074219 108.339844 354.371094 108.933594 354.65625 109.515625 C 354.949219 110.097656 355.230469 110.671875 355.457031 111.261719 C 355.953125 112.421875 356.425781 113.542969 356.875 114.617188 C 357.304688 115.707031 357.675781 116.761719 358.042969 117.761719 C 358.402344 118.765625 358.746094 119.707031 358.996094 120.617188 C 359.53125 122.4375 360.046875 124.003906 360.339844 125.328125 C 360.972656 127.96875 361.292969 129.476562 361.292969 129.476562 C 361.292969 129.476562 360.726562 128.03125 359.796875 125.507812 C 359.574219 124.863281 359.296875 124.175781 358.972656 123.429688 C 358.664062 122.679688 358.328125 121.871094 357.972656 121.003906 C 357.632812 120.125 357.203125 119.230469 356.753906 118.277344 C 356.300781 117.332031 355.871094 116.316406 355.371094 115.285156 C 354.320312 113.238281 353.210938 111.015625 351.890625 108.742188 C 351.277344 107.585938 350.558594 106.441406 349.828125 105.273438 C 349.464844 104.6875 349.105469 104.097656 348.734375 103.496094 C 348.347656 102.914062 347.953125 102.324219 347.550781 101.734375 C 347.160156 101.136719 346.757812 100.539062 346.347656 99.9375 C 345.917969 99.351562 345.488281 98.765625 345.054688 98.171875 C 344.617188 97.578125 344.179688 96.984375 343.742188 96.386719 C 343.285156 95.800781 342.828125 95.214844 342.359375 94.625 C 341.457031 93.425781 340.46875 92.285156 339.488281 91.132812 C 338.523438 89.953125 337.457031 88.871094 336.4375 87.738281 C 335.40625 86.613281 334.328125 85.542969 333.273438 84.449219 C 332.171875 83.410156 331.113281 82.332031 329.988281 81.335938 C 327.761719 79.324219 325.535156 77.386719 323.277344 75.621094 C 321.023438 73.863281 318.808594 72.191406 316.640625 70.707031 C 314.476562 69.210938 312.378906 67.875 310.425781 66.664062 C 308.449219 65.484375 306.621094 64.414062 304.976562 63.527344 C 303.328125 62.644531 301.882812 61.878906 300.664062 61.292969 C 299.453125 60.707031 298.496094 60.25 297.828125 59.957031 C 297.171875 59.664062 296.804688 59.519531 296.804688 59.519531 " fill-opacity="1" fill-rule="nonzero"/></g><path fill="#ffffff" d="M 62.449219 105.109375 C 62.449219 105.109375 62.578125 104.890625 62.84375 104.496094 C 63.105469 104.097656 63.488281 103.511719 64.011719 102.792969 C 64.519531 102.058594 65.171875 101.203125 65.925781 100.21875 C 66.707031 99.261719 67.554688 98.144531 68.574219 97.007812 C 69.074219 96.433594 69.597656 95.832031 70.136719 95.214844 C 70.6875 94.597656 71.285156 93.996094 71.882812 93.359375 C 73.074219 92.078125 74.394531 90.789062 75.78125 89.46875 C 76.457031 88.800781 77.203125 88.171875 77.929688 87.511719 C 78.664062 86.855469 79.398438 86.183594 80.175781 85.546875 C 80.960938 84.917969 81.75 84.285156 82.542969 83.648438 C 83.332031 83.007812 84.125 82.367188 84.960938 81.777344 C 86.625 80.601562 88.265625 79.375 89.984375 78.320312 C 90.828125 77.773438 91.675781 77.242188 92.511719 76.730469 C 93.355469 76.210938 94.230469 75.773438 95.070312 75.304688 C 95.90625 74.847656 96.730469 74.382812 97.546875 73.960938 C 98.363281 73.535156 99.207031 73.195312 100.003906 72.820312 C 101.605469 72.105469 103.09375 71.382812 104.5625 70.917969 C 106.011719 70.394531 107.335938 69.949219 108.507812 69.554688 C 109.703125 69.21875 110.773438 68.988281 111.632812 68.777344 C 113.363281 68.367188 114.359375 68.167969 114.359375 68.167969 C 114.359375 68.167969 113.429688 68.605469 111.808594 69.316406 C 111.007812 69.664062 110.027344 70.089844 108.902344 70.578125 C 107.808594 71.140625 106.574219 71.769531 105.230469 72.417969 C 103.863281 73.039062 102.480469 73.917969 100.976562 74.726562 C 100.222656 75.152344 99.445312 75.546875 98.675781 76.027344 C 97.925781 76.519531 97.128906 76.988281 96.335938 77.480469 C 95.546875 77.980469 94.71875 78.441406 93.929688 78.992188 C 93.136719 79.542969 92.332031 80.089844 91.507812 80.628906 C 89.855469 81.679688 88.28125 82.90625 86.660156 84.074219 C 85.839844 84.640625 85.050781 85.253906 84.269531 85.863281 C 83.484375 86.472656 82.703125 87.082031 81.925781 87.683594 C 80.417969 88.949219 78.878906 90.121094 77.453125 91.347656 C 76.050781 92.589844 74.632812 93.726562 73.363281 94.890625 C 72.074219 96.03125 70.863281 97.125 69.75 98.144531 C 68.636719 99.160156 67.644531 100.121094 66.734375 100.953125 C 65.867188 101.816406 65.0625 102.535156 64.441406 103.160156 C 63.175781 104.402344 62.449219 105.109375 62.449219 105.109375 " fill-opacity="1" fill-rule="nonzero"/><g fill="#fff0ee" fill-opacity="1"><g transform="translate(74.070285, 175.100057)"><g><path d="M 16.355469 -1.023438 L 3.035156 -32.796875 L 9.46875 -32.796875 L 17.75 -11.234375 C 17.75 -11.234375 18.941406 -9.347656 19.675781 -11.234375 L 27.957031 -32.796875 L 34.394531 -32.796875 L 21.070312 -1.023438 Z M 14.71875 0.410156 C 14.882812 0.777344 15.25 1.023438 15.699219 1.023438 L 21.769531 1.023438 C 22.136719 1.023438 22.546875 0.820312 22.710938 0.410156 L 36.894531 -33.410156 C 37.550781 -35.007812 35.953125 -34.847656 35.953125 -34.847656 L 27.261719 -34.847656 C 26.851562 -34.847656 26.441406 -34.558594 26.277344 -34.148438 L 18.734375 -14.429688 L 11.152344 -34.148438 C 10.988281 -34.558594 10.617188 -34.847656 10.207031 -34.847656 L 1.515625 -34.847656 C -0.246094 -34.847656 0.53125 -33.410156 0.53125 -33.410156 Z M 14.71875 0.410156 "/></g></g></g><g fill="#fff0ee" fill-opacity="1"><g transform="translate(111.619138, 175.100057)"><g><path d="M 9.222656 -32.796875 L 9.222656 -1.023438 L 3.566406 -1.023438 L 3.566406 -32.796875 Z M 11.273438 -33.820312 C 11.273438 -34.230469 10.863281 -34.847656 10.25 -34.847656 L 2.542969 -34.847656 C 2.089844 -34.847656 1.515625 -34.4375 1.515625 -33.820312 L 1.515625 0 C 1.515625 0.449219 1.886719 1.023438 2.542969 1.023438 L 10.25 1.023438 C 10.660156 1.023438 11.273438 0.65625 11.273438 0 Z M 11.273438 -33.820312 "/></g></g></g><g fill="#fff0ee" fill-opacity="1"><g transform="translate(124.490685, 175.100057)"><g><path d="M 22.34375 -16.316406 C 24.515625 -14.800781 25.828125 -12.585938 25.828125 -9.511719 C 25.828125 -3.933594 21.523438 -1.023438 15.25 -1.023438 L 3.566406 -1.023438 L 3.566406 -32.632812 L 15.25 -32.632812 C 21.398438 -32.632812 24.71875 -29.679688 24.71875 -24.023438 C 24.71875 -21.398438 23.777344 -19.351562 22.21875 -17.914062 C 22.054688 -17.710938 21.398438 -16.972656 22.34375 -16.316406 Z M 24.472656 -17.257812 C 25.910156 -19.023438 26.769531 -21.359375 26.769531 -24.023438 C 26.769531 -30.871094 22.261719 -34.683594 15.25 -34.683594 L 2.542969 -34.683594 C 2.089844 -34.683594 1.515625 -34.273438 1.515625 -33.65625 L 1.515625 0 C 1.515625 0.449219 1.886719 1.023438 2.542969 1.023438 L 15.25 1.023438 C 22.136719 1.023438 27.875 -2.5 27.875 -9.511719 C 27.875 -12.75 26.605469 -15.375 24.472656 -17.257812 Z M 9.59375 -14.183594 L 9.59375 -5.820312 C 9.59375 -5.164062 10.167969 -4.796875 10.617188 -4.796875 L 11.601562 -4.796875 C 14.472656 -4.796875 19.351562 -4.960938 19.351562 -10.003906 C 19.351562 -15.128906 12.996094 -15.210938 11.601562 -15.210938 L 10.617188 -15.210938 C 9.960938 -15.210938 9.59375 -14.59375 9.59375 -14.183594 Z M 11.644531 -13.117188 C 13.570312 -13.117188 17.300781 -12.75 17.300781 -10.003906 C 17.300781 -7.09375 14.921875 -6.847656 11.644531 -6.847656 Z M 10.617188 -18.324219 L 11.601562 -18.324219 C 14.59375 -18.324219 18.242188 -18.695312 18.242188 -23.53125 C 18.242188 -28.328125 14.59375 -28.738281 11.601562 -28.738281 L 10.617188 -28.738281 C 9.960938 -28.738281 9.59375 -28.121094 9.59375 -27.710938 L 9.59375 -19.351562 C 9.59375 -18.695312 10.167969 -18.324219 10.617188 -18.324219 Z M 11.644531 -20.375 L 11.644531 -26.6875 C 14.71875 -26.648438 16.191406 -26.605469 16.191406 -23.53125 C 16.191406 -20.414062 14.757812 -20.375 11.644531 -20.375 Z M 11.644531 -20.375 "/></g></g></g><g fill="#fff0ee" fill-opacity="1"><g transform="translate(153.47217, 175.100057)"><g><path d="M 20.867188 -32.796875 L 20.867188 -28.082031 L 10.25 -28.082031 C 9.59375 -28.082031 9.222656 -27.464844 9.222656 -27.058594 L 9.222656 -20.332031 C 9.222656 -19.675781 9.796875 -19.308594 10.25 -19.308594 L 20.375 -19.308594 L 20.375 -14.59375 L 10.25 -14.59375 C 9.59375 -14.59375 9.222656 -13.980469 9.222656 -13.570312 L 9.222656 -6.765625 C 9.222656 -6.109375 9.796875 -5.738281 10.25 -5.738281 L 20.867188 -5.738281 L 20.867188 -1.023438 L 3.566406 -1.023438 L 3.566406 -32.796875 Z M 22.917969 -33.820312 C 22.917969 -34.230469 22.507812 -34.847656 21.890625 -34.847656 L 2.542969 -34.847656 C 2.089844 -34.847656 1.515625 -34.4375 1.515625 -33.820312 L 1.515625 0 C 1.515625 0.449219 1.886719 1.023438 2.542969 1.023438 L 21.890625 1.023438 C 22.300781 1.023438 22.917969 0.65625 22.917969 0 L 22.917969 -6.765625 C 22.917969 -7.175781 22.507812 -7.789062 21.890625 -7.789062 L 11.273438 -7.789062 L 11.273438 -12.542969 L 21.398438 -12.542969 C 21.808594 -12.542969 22.425781 -12.914062 22.425781 -13.570312 L 22.425781 -20.332031 C 22.425781 -20.742188 22.015625 -21.359375 21.398438 -21.359375 L 11.273438 -21.359375 L 11.273438 -26.03125 L 21.890625 -26.03125 C 22.300781 -26.03125 22.917969 -26.402344 22.917969 -27.058594 Z M 22.917969 -33.820312 "/></g></g></g><g fill="#fff0ee" fill-opacity="1"><g transform="translate(177.61657, 175.100057)"><g/></g></g><g fill="#fff0ee" fill-opacity="1"><g transform="translate(183.560436, 175.100057)"><g><path d="M 27.917969 -24.308594 L 28.492188 -24.1875 C 28.941406 -24.226562 29.3125 -24.554688 29.394531 -24.964844 L 31.035156 -32.550781 C 31.113281 -32.960938 30.953125 -33.371094 30.582031 -33.617188 C 30.417969 -33.78125 27.753906 -35.460938 20.292969 -35.460938 C 10.167969 -35.460938 0.941406 -27.179688 0.941406 -16.847656 C 0.941406 -6.519531 10.207031 1.640625 20.292969 1.640625 C 27.753906 1.640625 30.378906 0 30.625 -0.164062 C 30.910156 -0.367188 31.113281 -0.820312 31.035156 -1.230469 L 29.394531 -8.8125 C 29.105469 -10.125 28.082031 -9.59375 27.917969 -9.511719 C 27.835938 -9.46875 25.089844 -7.992188 21.480469 -7.992188 C 14.308594 -7.992188 11.355469 -12.871094 11.355469 -16.929688 C 11.355469 -20.90625 14.308594 -25.828125 21.480469 -25.828125 C 25.046875 -25.828125 27.835938 -24.308594 27.917969 -24.308594 Z M 21.480469 -5.945312 C 24.144531 -5.945312 26.359375 -6.640625 27.671875 -7.132812 L 28.859375 -1.558594 C 27.753906 -1.148438 25.171875 -0.410156 20.292969 -0.410156 C 11.234375 -0.410156 2.992188 -7.789062 2.992188 -16.847656 C 2.992188 -25.910156 11.191406 -33.410156 20.292969 -33.410156 C 25.210938 -33.410156 27.792969 -32.632812 28.859375 -32.222656 L 27.671875 -26.648438 C 26.277344 -27.179688 24.144531 -27.875 21.480469 -27.875 C 13.117188 -27.875 9.304688 -21.933594 9.304688 -16.929688 C 9.304688 -11.847656 13.117188 -5.945312 21.480469 -5.945312 Z M 21.480469 -5.945312 "/></g></g></g><g fill="#fff0ee" fill-opacity="1"><g transform="translate(215.493353, 175.100057)"><g><path d="M 21.6875 -32.796875 L 34.476562 -1.023438 L 28.449219 -1.023438 L 26.195312 -7.09375 C 26.03125 -7.503906 25.664062 -7.789062 25.253906 -7.789062 L 12.378906 -7.789062 C 11.929688 -7.789062 11.5625 -7.503906 11.398438 -7.09375 L 9.140625 -1.023438 L 3.117188 -1.023438 L 15.90625 -32.796875 Z M 23.324219 -34.191406 C 23.164062 -34.558594 22.792969 -34.847656 22.382812 -34.847656 L 15.25 -34.847656 C 14.839844 -34.847656 14.429688 -34.558594 14.265625 -34.191406 L 0.613281 -0.367188 C 0 1.1875 1.597656 1.023438 1.597656 1.023438 L 9.878906 1.023438 C 10.289062 1.023438 10.660156 0.777344 10.824219 0.367188 L 13.078125 -5.738281 L 24.515625 -5.738281 L 26.769531 0.367188 C 26.933594 0.777344 27.300781 1.023438 27.753906 1.023438 L 36.035156 1.023438 C 37.675781 1.023438 36.976562 -0.367188 36.976562 -0.367188 Z M 23.570312 -13.898438 L 19.71875 -23.734375 C 19.71875 -23.734375 18.488281 -25.582031 17.792969 -23.695312 L 14.019531 -13.855469 C 14.019531 -13.855469 13.363281 -12.503906 15.003906 -12.503906 L 22.628906 -12.503906 C 22.628906 -12.503906 24.144531 -12.339844 23.570312 -13.898438 Z M 21.113281 -14.554688 L 16.480469 -14.554688 L 18.777344 -20.496094 Z M 21.113281 -14.554688 "/></g></g></g><g fill="#fff0ee" fill-opacity="1"><g transform="translate(253.124191, 175.100057)"><g><path d="M 9.222656 -32.796875 L 9.222656 -6.765625 C 9.222656 -6.109375 9.796875 -5.738281 10.25 -5.738281 L 20.867188 -5.738281 L 20.867188 -1.023438 L 3.566406 -1.023438 L 3.566406 -32.796875 Z M 11.273438 -33.820312 C 11.273438 -34.230469 10.863281 -34.847656 10.25 -34.847656 L 2.542969 -34.847656 C 2.089844 -34.847656 1.515625 -34.4375 1.515625 -33.820312 L 1.515625 0 C 1.515625 0.449219 1.886719 1.023438 2.542969 1.023438 L 21.890625 1.023438 C 22.300781 1.023438 22.917969 0.65625 22.917969 0 L 22.917969 -6.765625 C 22.917969 -7.175781 22.507812 -7.789062 21.890625 -7.789062 L 11.273438 -7.789062 Z M 11.273438 -33.820312 "/></g></g></g><g fill="#fff0ee" fill-opacity="1"><g transform="translate(277.022635, 175.100057)"><g><path d="M 9.222656 -32.796875 L 9.222656 -6.765625 C 9.222656 -6.109375 9.796875 -5.738281 10.25 -5.738281 L 20.867188 -5.738281 L 20.867188 -1.023438 L 3.566406 -1.023438 L 3.566406 -32.796875 Z M 11.273438 -33.820312 C 11.273438 -34.230469 10.863281 -34.847656 10.25 -34.847656 L 2.542969 -34.847656 C 2.089844 -34.847656 1.515625 -34.4375 1.515625 -33.820312 L 1.515625 0 C 1.515625 0.449219 1.886719 1.023438 2.542969 1.023438 L 21.890625 1.023438 C 22.300781 1.023438 22.917969 0.65625 22.917969 0 L 22.917969 -6.765625 C 22.917969 -7.175781 22.507812 -7.789062 21.890625 -7.789062 L 11.273438 -7.789062 Z M 11.273438 -33.820312 "/></g></g></g></svg>